/* XPM */
static char *febd2ceeda7b4adef7b7de73dfe462b08VIbsZweBHFSoK6r[] = {
/* columns rows colors chars-per-pixel */
"64 64 236 2 ",
"   c #000000",
".  c #080200",
"X  c #00010B",
"o  c #010314",
"O  c #01021B",
"+  c #060A1A",
"@  c #030626",
"#  c #040924",
"$  c #0A0821",
"%  c #02042C",
"&  c #050A2D",
"*  c #000031",
"=  c #050C32",
"-  c #070F3D",
";  c #07103D",
":  c #081139",
">  c #111135",
",  c #2E1531",
"<  c #2C263A",
"1  c #0C1142",
"2  c #161644",
"3  c #171A43",
"4  c #161948",
"5  c #0E165D",
"6  c #1B195A",
"7  c #381C4E",
"8  c #251B5D",
"9  c #271B5C",
"0  c #302B4B",
"q  c #3F2956",
"w  c #3E265F",
"e  c #2A1E66",
"r  c #341F63",
"t  c #301F68",
"y  c #1F207E",
"u  c #372162",
"i  c #31206A",
"p  c #252275",
"a  c #35257A",
"s  c #4F334F",
"d  c #422E55",
"f  c #452C59",
"g  c #443453",
"h  c #493A55",
"j  c #62365D",
"k  c #4C2B6B",
"l  c #57286E",
"z  c #5C2A72",
"x  c #693B68",
"c  c #6A3C68",
"v  c #703F6C",
"b  c #632B76",
"n  c #622D7B",
"m  c #45445B",
"M  c #4F4B5A",
"N  c #5A485A",
"B  c #6B4E5E",
"V  c #74525D",
"C  c #594364",
"Z  c #6C4963",
"A  c #79436E",
"S  c #725362",
"D  c #6D666D",
"F  c #756C70",
"G  c #97597E",
"H  c #8A6172",
"J  c #9B6B76",
"K  c #9F7377",
"L  c #A57679",
"P  c #B17D7E",
"I  c #91857F",
"U  c #190393",
"Y  c #1B0A91",
"T  c #171093",
"R  c #230D96",
"E  c #251593",
"W  c #291794",
"Q  c #361A96",
"!  c #172391",
"~  c #1A2193",
"^  c #2C2481",
"/  c #3A2884",
"(  c #252692",
")  c #2B2694",
"_  c #332394",
"`  c #392496",
"'  c #342994",
"]  c #3A2996",
"[  c #3B2A99",
"{  c #422A83",
"}  c #462C8A",
"|  c #492D8B",
" . c #442E97",
".. c #4A2D96",
"X. c #432C9A",
"o. c #482999",
"O. c #522F90",
"+. c #4C3097",
"@. c #453199",
"#. c #4E3199",
"$. c #53329C",
"%. c #6C3491",
"&. c #65379E",
"*. c #603A99",
"=. c #713892",
"-. c #6938A1",
";. c #773BA5",
":. c #7A3BA7",
">. c #6D429A",
",. c #74439D",
"<. c #784B9A",
"1. c #7B539B",
"2. c #7C43A2",
"3. c #7A5CA0",
"4. c #7C63A1",
"5. c #903C92",
"6. c #823EA9",
"7. c #944F81",
"8. c #945280",
"9. c #995383",
"0. c #824B9F",
"q. c #88579A",
"w. c #A2558A",
"e. c #A65B8D",
"r. c #A95D8F",
"t. c #A55B94",
"y. c #AA668A",
"u. c #AE7485",
"i. c #B37A8E",
"p. c #B9659B",
"a. c #BE699D",
"s. c #AA779D",
"d. c #8747A5",
"f. c #9243AC",
"g. c #9343B5",
"h. c #9C47B6",
"j. c #A246AD",
"k. c #A85EA7",
"l. c #AA5FA8",
"z. c #A347B7",
"x. c #A54ABB",
"c. c #AA4CBE",
"v. c #B058B2",
"b. c #B363A9",
"n. c #B264AB",
"m. c #B769A9",
"M. c #B778A6",
"N. c #C26A9F",
"B. c #C1729A",
"V. c #C66DA2",
"C. c #C26CAD",
"Z. c #D070AD",
"A. c #D274AD",
"S. c #D37BA9",
"D. c #C76DB3",
"F. c #DB6DB4",
"G. c #D36DBF",
"H. c #D776B3",
"J. c #DA75B4",
"K. c #DA79B3",
"L. c #D974BB",
"P. c #DE7AB8",
"I. c #E679B9",
"U. c #E37DB9",
"Y. c #E97EBC",
"T. c #AD4BC1",
"R. c #B14EC1",
"E. c #BD4ECB",
"W. c #BA53C5",
"Q. c #BF52C9",
"!. c #C14FCD",
"~. c #C55AC6",
"^. c #C253CB",
"/. c #C85BC9",
"(. c #C855D1",
"). c #CC66C2",
"_. c #D167C1",
"`. c #D36BC1",
"'. c #9C8F86",
"]. c #B68484",
"[. c #AA968D",
"{. c #BE849D",
"}. c #AFA294",
"|. c #B8A89B",
" X c #BD89A9",
".X c #C48C8C",
"XX c #C98C8C",
"oX c #CC928E",
"OX c #C98996",
"+X c #CD9496",
"@X c #D99A97",
"#X c #D5A09A",
"$X c #E5A39D",
"%X c #DA86A9",
"&X c #CD94A7",
"*X c #DD83B3",
"=X c #E799AB",
"-X c #E681B7",
";X c #EA8BB7",
":X c #E981BC",
">X c #E890B5",
",X c #F09AB3",
"<X c #C8B6A6",
"1X c #D0B0AC",
"2X c #C5B1B5",
"3X c #EBA4A2",
"4X c #E8A4A6",
"5X c #EEAAA5",
"6X c #F2AAA5",
"7X c #F6AAA9",
"8X c #F6ADA9",
"9X c #E7B5AC",
"0X c #FAB1A6",
"qX c #F1B3AB",
"wX c #F6B4A8",
"eX c #FAB4AA",
"rX c #F6AFB4",
"tX c #E7B9B7",
"yX c #D6C5B1",
"uX c #EBC9BA",
"iX c #F7C6B7",
"pX c #F3CAB9",
"aX c #EBD3BE",
"sX c #F6D2BE",
"dX c #F186C1",
"fX c #F1B3C2",
"gX c #F0CBC4",
"hX c #EFD5C5",
"jX c #EDDAC2",
"kX c #F3DCC6",
"lX c #F9D8C4",
"zX c #F6E1C8",
"xX c #FAE5CB",
"cX c #FDEACD",
"vX c #FEEDD2",
"bX c #FFF1D5",
/* pixels */
"                                                                                                                                ",
"                                                                                                                                ",
"                                                                                                                                ",
"                  X   X                                                                                     X   X               ",
"    .             X o o + X                                                                         .     o o + X X             ",
"      o & = = & = = : : = = = = = = = = = & = & & = & = = = = & = = = = = & = = = = = = = = = = & = = = = = - = : = = = = & +   ",
"    o , j A A A x f 6 5 9 k z b b b b b b b b b b b b b b b b b b b b b b b b b b b b b b b b b b b b b k u 6 5 r j v A A x s $ ",
"    + j w.N.V.N.t.=.^ y { =.f.j.j.j.j.j.j.j.j.j.j.j.j.j.j.j.j.j.j.j.j.j.j.j.j.j.j.j.j.j.j.j.j.h.j.j.j.j.6.O.p y | q.p.V.V.p.v > ",
"    # c m.U.dX-XC.d.[ ( #.g.T.Q.^.^.^.^.^.^.^.^.^.^.W.^.^.^.^.^.^.Q.^.Q.Q.Q.^.Q.^.Q.Q.^.Q.^.Q.Q.Q.^.(.Q.h.-.' ~ *.k.K.:XdXA.8.2 ",
"    # c N.:XdX:XD.0.[ ( $.d.W.(.^.^.^.^.^.^.^.^.^.^.^.^.^.^./.^./.^.^.(.^.(.(.^.(.^.(.(.!./.(.(./.(.(.!.x.-.' ~ *.b.P.dXdXH.9.4 ",
"    # c N.-X:XU.C.0.[ ( #.d.R.(.^.^.^.^.^.^.Q.^.^.^.^.^.^.!.Q.^.^.Q.Q.^.Q.^.Q.^.Q.Q.Q.Q.Q.^.Q.^.Q.^./.Q.h.-.' ~ *.k.J.:X:XA.8.2 ",
"    # c N.U.:XU.C.0.' ( #.d.R.Q.^.E.^.W.^.^.Q.Q.^.^.E.^.W.^.Q.Q.Q.Q.Q.Q.Q.Q.Q.Q.Q.Q.Q.Q.Q.Q.Q.Q.Q.Q.^.Q.h.&.' ~ *.k.J.:X:XA.8.2 ",
"    # c a.-X:XU.C.0.] ( o.f.T.Q.^.!.W.E.Q.Q.Q.Q.Q.Q.Q.Q.Q.Q.Q.Q.Q.Q.Q.Q.Q.Q.Q.Q.Q.Q.Q.Q.Q.Q.Q.Q.Q.Q.(.Q.h.&.' ~ $.k.H.:X:XA.8.4 ",
"    # c a.U.:XU.C.d.' ( #.6.R.!.^.^.^.^.Q.Q.Q.Q.Q.Q.Q.Q.Q.Q.Q.Q.Q.Q.Q.Q.Q.Q.Q.Q.Q.Q.Q.Q.Q.Q.Q.Q.Q.^.^.Q.h.&.' ! *.k.H.:X:XA.G 2 ",
"    # c a.U.:XU.C.0.' ( #.6.R.!.^.W.^.W.Q.Q.Q.Q.Q.Q.Q.Q.Q.Q.Q.Q.Q.Q.Q.Q.Q.Q.Q.Q.Q.Q.Q.Q.Q.Q.Q.Q.Q.Q.^.Q.h.&.' ~ *.l.H.:X:XA.7.2 ",
"    # c a.U.:X*XC.0.' ( #.d.R.(.^.Q.Q.^.Q.Q.Q.Q.Q.Q.Q.Q.Q.Q.Q.Q.Q.Q.Q.Q.Q.Q.Q.Q.Q.Q.Q.Q.Q.Q.Q.Q.Q.Q.^.Q.h.&.' ~ *.l.H.:X:XA.8.2 ",
"    # c N.U.:XU.C.0.' ( +.d.R.^.^.!.Q.Q.Q.Q.Q.Q.^.^.^.Q.Q.Q.Q.Q.Q.Q.Q.Q.Q.Q.Q.Q.Q.Q.Q.Q.Q.Q.^.^.Q.Q.^.Q.h.&.' ! *.k.H.:X:XA.G 2 ",
"    # c a.U.:XU.C.d.] ( #.6.R.^.^.^.Q.^.Q.Q.Q.Q.^.^.W.!.Q.Q.Q.Q.Q.Q.Q.Q.Q.Q.Q.Q.Q.Q.Q.Q.Q.Q.E.^.Q.^.^.Q.h.&.' ! *.k.K.:X:XA.8.2 ",
"    # c a.U.:XU.C.<.' ( #.d.R.!.^.Q.Q.W.Q.Q.Q.Q.c.^.^.^.Q.Q.Q.Q.Q.Q.Q.Q.Q.W.Q.Q.Q.Q.Q.Q.Q.Q./.!.Q.^.^.Q.h.&.' ~ *.k.H.:X:XA.8.2 ",
"    # c a.-X:XU.V.0.] ( ..6.R.(.^.Q.Q.^.Q.Q.Q.Q.^.^.^.^.Q.Q.Q.Q.Q.Q.Q.Q.Q.^.Q.Q.Q.Q.Q.Q.Q.Q.c.^.Q.^.^.Q.h.&.' ~ *.k.H.:X:XZ.8.2 ",
"    # c a.U.:XU.C.0.' ( $.6.R.^.^.Q.W.^.^.Q.Q.Q.^.^.!.c.W.E.W.^.Q.^.^.Q.Q.Q.Q.Q.Q.Q.Q.Q.E.W.^.!.Q.Q.^.Q.h.-.' ~ $.k.H.:X:XA.8.2 ",
"    # c a.U.-XU.C.0.] ( #.6.R.^.^.Q.^.Q.W.^.Q.Q./.c.^.^.^.^.^.^.Q.W.Q.Q.Q.Q.Q.Q.Q.Q.Q.Q.^.^.^.W.Q.^.Q.Q.g.-.' ~ >.k.H.:X:XA.8.2 ",
"    # c a.U.:XU.C.0.' ) #.6.R.^.^.W.Q.Q.Q.Q.Q.Q.^.E.E.^.^.W.^.W.Q.Q.Q.Q.Q.Q.Q.Q.^.W.Q.Q.!.W.^.W.Q.Q.^.Q.h.-.) ! $.l.H.:X:XA.8.2 ",
"    # c a.-X:XU.C.0.] ) $.6.R.^.^.^.Q.Q.Q.Q.Q.Q.^.W.^.W.^.!.W.^.Q.Q.Q.Q.Q.Q.Q.Q.^.Q.Q.Q.^.W.^.^.Q.^./.Q.h.-.' ! $.l.H.:X:XA.8.2 ",
"    # c a.U.Y.U.C.0._ ( #.6.R.^.^.^.^.^.^.Q.^.^.^.^.^.W.^.^.Q.^.Q.Q.^.!.^.^.^.Q.^.W.^.^.^.^.^.^.^.^.^.^.h.&.' ~ >.l.H.:XY.A.G 2 ",
"    # x a.I.Y.U.C.0.' ( $.6.E.^.^.^.^.^.^.^.^.^.^.^.^.^.^.^.^.^.^.^.^.^.^.^.^.^.^.^.~.^.^.^.^.^./.^.(.^.h.&.' ! $.k.H.Y.Y.A.7.2 ",
"    # c N.U.:XU.C.0.] ( #.d.R.^./.^.^.^.Q.^.^.^.^.^.^.^.^.Q.^.^.^.~.^./.Q.^.^.Q.Q.^.^.^.^.^.^.W.^.^.^.^.h.&.' ~ *.k.J.:XY.A.7.2 ",
"    @ Z B.>X;X;XS.0._ ) #.:.h.T.c.c.c.z.c.c.c.x.c.c.c.c.c.c.c.c.c.c.z.c.c.c.c.c.c.c.c.c.c.c.c.c.c.c.R.c.6.*.' E *.s.*X;X;XS.G 2 ",
"  X # Z OX,X7X3X&X0.` Q $.-.;.6.6.6.:.6.6.6.:.d.6.6.:.6.6.6.:.6.6.6.6.6.6.6.6.6.:.6.:.6.6.:.d.:.6.6.6.6.-.$.o.R *.s.=X7X7X%XJ 3 ",
"  X @ S oX6X0X6X+Xq.Q Q +.+.+.+.....+...+.+.......| ..........| ..o.o.| | ..o.| ....+.+.+...........+...#.#.o.U *.s.=X0XeX$XK 3 ",
"  X # S oX6X0X6X&X1.R Y Q _ ) ( ( ( ( ( ( ( ( E Y U Y Y Y Y Y Y U Y Y Y Y Y Y Y Y Y T W ( ( ( ( ( ( ( ( ) Q R U O.s.$X0X0X@XJ 3 ",
"  X # S XX6X0X6X+X1.R Y Q Q _ ) _ ' ' ' ' ) _ W E E E E E E E E E E E E E E E E E E W W ' ' ' ' ' ) _ ' ) Q R U #.s.$X0X0X$XJ 3 ",
"    $ S +XwXiXqX#Xs.>.>.1.1.,.,.2.<.,.,.2.,.>.1.4.4.4.4.4.4.4.4.4.4.4.4.4.4.4.4.4.4.4.3.-.2.,.,.,.,.,.,.<.1.<.&.q.&X5XqXeX$XK 4 ",
"    # D <XpXsXaXtX&X{.{.{.M.m.b.b.b.b.n.l.n.m. X2X2X2X2X2X2X2X2X2X2X2X2X2X2X2X2X2X2X X Xb.l.b.b.m.b.b.m.M.{.{.i.OX1XuXlXlXuX'.3 ",
"    # F <XxXcXzXaX9X4X4X4X=XU.P.J.P.P.K.L.J.:XfXhXkXkXkXjXkXkXkXsXkXjXkXkXkXkXjXjXzXgX>XL.F.P.K.K.P.L.U.>X=X3X$X9XiXkXxXxXaX[.3 ",
"    $ F yXcXbXcXlXiX0X0XwX7X;XY.:X:X:X:XY.I.,XfXcXcXcXcXcXcXcXcXcXcXcXcXvXcXcXcXvXvXhXfXY.Y.:X:X:X:XI.:X,X7X0X0XeXpXzXvXbXjX[.3 ",
"    # F yXxXbXcXlXiX6X0X7X7X;XY.:X:X:X:XI.I.;XrXkXxXxXxXxXxXxXcXxXxXxXxXxXxXxXxXcXcXgX,XY.I.:X:X:X:XY.Y.,X7X6X8XeXsXxXbXbXjX}.3 ",
"    # F yXkXjXjXpX5X$X$X$X=XS.H.H.A.H.H.A.F.I.tXkXxXxXkXkXkXkXkXkXkXkXkXkXkXkXzXzXzXgX>XA.F.H.Z.K.H.J.Z.%X=X$X$X3XyXaXzXjXyX'.3 ",
"  X & M '.|.|.|.}.].P P u.u.y.e.e.e.e.e.w.5.p.1XkXcXzXkXsXpXiXiXpXpXpXpXpXpXpXpXsXpX9XB.w.w.e.e.e.e.e.e.u.P '.P ].[.|.|.|.}.F 3 ",
"  + = 0 d m m m m g g g g g q d q q d q 7 , C |.jXcXxXlXpXqX5X8XqX5XqXqX5XqXqXqXqX9X@XH 7 7 q q g q q q q g s s g h m m m m 0 1 ",
"  + ; = @ o o o o O @ @ @ O o o o o O @ o   < }.jXvXcXlXiX6X3X3X6X6X6X6X6X6X6X7X0X7XXXV O X @ O O o o o O @ @ @ # o o o o O % ; ",
". + ; * @ X X X o o O O O O O O o O @ % O   0 |.zXbXvXzXiX8X7X8X8X8X0X6X8X8X6X8XeX7XoXV O O % % O O o O o O O O O o o X X o % - ",
"  + ; 1 - - - - : ; ; ; - - - ; - - ; - *   0 }.aXcXxXlXiX6X3X3X6X5X5X5X5X5X5X5X7X5XoXS = % ; ; ; ; - ; - - ; ; - - - ; - : - - ",
"  + = 4 8 t i i t i e i t t t t i t 9 1 * O 4 '.<XyX<X<X|.XXXX.X.X.X.X.X.X.X.X.X.X.XL B = % ; 6 e i t t t t i i e t t t t e 6 1 ",
"  o % 9 a | | } } } } } } } } } | } i 4 = & 4 M D D D D S B B B B B Z B B B Z B Z B N 0 - % ; 9 k | | } | | } } } } } | | k e 1 ",
"  o & 9 { #.#...+.#.#.$.#.#.#.#.$.$.a 4 & = = & # # & # & = & & & & & % & & & % & & = = = @ ; i  .+.#.#.+.+.+.$.#.#.+.$.$...p 1 ",
"  o & 6 / [ [ [ ]  .@.@.@.@. . .X.X.p : X + O o X X X X o O # O O O O @ O O O @ O O @ O O X O 5 ' @.@.X. . ...@. .X.] [ [ ` p 1 ",
"  X = 6 / X.X.+. ...+.@.+.+.#.#.#...p 1 + # & & & = & = * = = = = = = = = = = = = = = % & O & 9 / #.#.#.+.@....... . .X.+.` t 1 ",
"  X & w =.q.d.q.d.;.;.;.;.:.;.;.:.;.%.n z z z k 9 6 9 8 8 8 8 8 9 8 9 8 8 8 8 9 6 9 w l z l z %.;.;.;.;.;.;.;.;.:.d.d.q.d.<.z > ",
"  X # j t.C.Z.m.n.v.x.x.x.x.x.x.x.x.z.j.j.j.j.=.| a / { { { { { { { { { { { { { / { %.6.j.j.j.j.z.x.x.x.z.z.x.x.x.v.m.D.D.m.A 4 ",
"    # c N.U.-XU.`./.^.!.^.!.Q.Q.^.Q.Q.^.^.^.E.g.$.] o.#.#.#.O.#.#.O.#.+.#.#.O.#. ...6.T.!.^.^.^.Q.^.^.Q.^.^.E.E.^.`.P.U.:XA.9.4 ",
"    # c N.:X:XU.L./.(.!.^.^.^.^.^.^.^.^.(.(.Q.g.$.( [ X.X.X.X.X.X.X.X.X.X.X.X.[ ) _ :.R.(.^.^.^.^.^.^.^.!.^.!.E.~.`.I.:X:XA.9.4 ",
"    @ x N.I.U.U.L.~.E.E.E.!.E.^.^.Q.Q.Q.^.^.E.g.#.~ ) ] ] [ [ ` [ ` ] ] [ ' [ ' ( _ ;.T.^.^.!.!.Q.Q.^.Q.E.^.!.E.^._.P.Y.:XA.9.2 ",
"  X @ Z B.-X;X;XP.).~.^.~.~.~.~.~.~.~.~.~./.W.j.d.$.>.,.,.,.>.,.,.,.,.,.,.,.,.,.>.>.f.R././.~.~.~.~.~.~.~.~.~.~.~.G.-X>X;XS.9.2 ",
"    # Z OX>X4X>X>XL.G._.G.G.G.G.G.G.G.G.G.`.`.C.b.b.b.b.b.b.b.b.b.l.b.b.b.b.n.n.n.b.m.G.G.G.G.G.`.G.G.G.G.G.G._.L.*X>X=X,X%XJ 2 ",
"  X # S XX6X8X7X=X*XU.J.P.P.P.P.P.P.P.P.P.U.U.K.P.K.K.K.K.K.K.K.K.P.K.H.K.K.H.K.H.K.K.P.K.U.P.U.P.P.P.P.P.P.J.L.P.=X5X6X0X@XK 2 ",
"  X # S oXwX0XqX5X>XU.U.-XU.-X-X-XU.-X-X-XU.U.:X:X:X:X:X:X:X:X:X:X:X:X:X:X:X:X:X:X:X:XU.-X-XU.-X-X-X-X-X-XU.U.I.-X,X8XwXeX$XL 3 ",
"    & S @XeXeX0X7X;XY.Y.:X:X:X:X:X:X:X-X:X:X:X-X:X:X:X:X:X:X:XY.dX:X:X:X:X:X:X:X:X:X:X:X:X:X:X-X:X:X:X:X:X:X:XI.;X,XeXeXeX$XL 3 ",
"  X + B .X$X6X3X=X*XH.J.K.K.K.K.K.K.K.P.K.K.K.K.K.K.K.K.K.K.K.K.H.K.K.K.K.J.K.K.H.K.K.K.K.K.K.K.K.K.K.K.K.K.J.J.H.%X4X$X5X@XK > ",
"    + s J ].].].u.y.e.e.r.r.r.e.r.r.e.r.r.r.r.r.r.r.r.r.r.r.r.r.e.t.e.r.r.r.y.e.r.r.r.r.e.r.r.r.r.r.r.e.e.e.r.t.y.u.u.].].P V > ",
"    X , 0 h h s h f f f d f f f f f f f f f f f f f f f f f f f f f f f f f f f f f f f f f f f f f f f f f f f f g h h h g < o ",
". .   X @ % & & % @ @ @ @ @ @ @ @ @ @ @ @ @ @ @ @ @ @ @ @ @ @ & @ @ @ @ @ @ @ @ @ @ @ @ @ @ @ @ @ @ @ @ @ @ @ @ @ % & * & @ o   ",
"  .   o % * * * * * * % * * % * * * * * * * % * * * % % * * * * * * * * * * % * % * * * * * % * * * % * * % * * * * * * * % O   ",
"      + * 1 1 - - 1 - - - - - - - - - - - - - - - - - - - - - - - - - - - - ; ; - - - - - 1 - - - - - - - - - - - 1 - 1 1 = # X "
};
