/* XPM */
static char *result[] = {
/* columns rows colors chars-per-pixel */
"64 64 85 1 ",
"  c #130208",
". c #08103E",
"X c #09113F",
"o c #0B1141",
"O c #14154D",
"+ c #1C1956",
"@ c #17205B",
"# c #17205C",
"$ c #18215D",
"% c #1A225F",
"& c #1E225F",
"* c #251D61",
"= c #1F2361",
"- c #212466",
"; c #27256D",
": c #2B206A",
"> c #372F69",
", c #39306C",
"< c #2E2774",
"1 c #332474",
"2 c #34297A",
"3 c #3C287F",
"4 c #72457A",
"5 c #402A83",
"6 c #442C88",
"7 c #442E8B",
"8 c #4D3093",
"9 c #4E3093",
"0 c #503197",
"q c #543299",
"w c #6A3990",
"e c #6B3A91",
"r c #6A3992",
"t c #6D3A94",
"y c #62369F",
"u c #7C3E9E",
"i c #6938A2",
"p c #7C3EAB",
"a c #7A4E89",
"s c #7E4F8B",
"d c #7A4B8D",
"f c #6E419E",
"g c #905893",
"h c #A85B9F",
"j c #AF639C",
"k c #894FA4",
"l c #9643A9",
"z c #9955A9",
"x c #9345B5",
"c c #9947B0",
"v c #9C48B2",
"b c #9E49B3",
"n c #A149BB",
"m c #A84BBE",
"M c #AC4CBD",
"N c #AA51BA",
"B c #B669A4",
"V c #BD6CA7",
"C c #BD78A0",
"Z c #C35BBF",
"A c #CE69BA",
"S c #D26BBE",
"D c #D36BBE",
"F c #DB79B3",
"G c #D770BC",
"H c #D973BB",
"J c #D778B9",
"K c #DF7AB8",
"L c #E07CB7",
"P c #AD4DC1",
"I c #B84FC3",
"U c #BB50C4",
"Y c #BF52C9",
"T c #BF53C9",
"R c #C459C6",
"E c #C85DC4",
"W c #C054C8",
"Q c #C155C8",
"! c #CD63C1",
"~ c #CC63C2",
"^ c #CE65C1",
"/ c #DB85B4",
"( c #E893AE",
") c #E998AC",
"_ c #EFAAA5",
/* pixels */
"@@@@@@@@@@@@@@&UUUAFFF99999999UUUUUUUZFFF>@@@@@@@@@@@@@@@@@@wUUU",
"$$$$$$$$$$$$$$=YYYDLLL00000000YYYYYYYELLL,$$$$$$$$$$$$$$$$$$tYYY",
"$$$$$$$$$$$$$$=YYYDLLL00000000YYYYYYYELLL,$$$$$$$$$$$$$$$$$$tYYY",
"$$$$$$$$$$$$$$=YYYDLLL00000000YYYYYYYELLL,$$$$$$$$$$$$$$$$$$tYYY",
"$$$BBBB7777vvvbHHHzfffmmmmmmmmYYYYYYYELLLVBBB7777vvvvBBBB$$$dHHH",
"$$$LLLL0000YYYWLLLk000YYYYYYYYYYYYYYYELLLLLLL0000YYYYLLLL$$$sLLL",
"$$$LLLL0000YYYWLLLk000YYYYYYYYYYYYYYYELLLLLLL0000YYYYLLLL$$$sLLL",
"$$$LLLL0000YYYWLLLk000YYYYYYYYYYYYYYYELLLLLLL0000YYYYLLLL$$$sLLL",
"uuuLLLL0000YYYT~~~NxxxYYYYYYYYYYYYYYYELLLLLLL0000YYYY~~~~gggC)))",
"YYYLLLL0000YYYYYYYYYYYYYYYYYYYYYYYYYYELLLLLLL0000YYYYYYYYLLL(___",
"YYYLLLL0000YYYYYYYYYYYYYYYYYYYYYYYYYYELLLLLLL0000YYYYYYYYLLL(___",
"YYYLLLL0000YYYYYYYYYYYYYYYYYYYYYYYYYYELLLLLLL0000YYYYYYYYLLL(___",
"YYYLLLL0000!!!!!!!!!!!!!!!!!!!!!!!!!!^SSSSSSS0000YYYYYYYYSSSJ///",
"YYYLLLL0000LLLLLLLLLLLLLLLLLLLLLLLLLLGYYYYYYY0000YYYYYYYYYYYYYYY",
"YYYLLLL0000LLLLLLLLLLLLLLLLLLLLLLLLLLGYYYYYYY0000YYYYYYYYYYYYYYY",
"YYYLLLL0000LLLLLLLLLLLLLLLLLLLLLLLLLLGYYYYYYY0000YYYYYYYYYYYYYYY",
"YYYLLLLiiiijjjjjjjjjjjjjjjjjjjjjjjjjjhlllllll5555YYYYYYYYYYYMccc",
"YYYLLLLYYYY......................................YYYYYYYYYYYr$$$",
"YYYLLLLYYYY......................................YYYYYYYYYYYr$$$",
"YYYLLLLYYYY......................................YYYYYYYYYYYr$$$",
"WWWKKKKIIIIXXXXXXXXXXXXXXXXXXXXXXXXXXXXXXXXXXXXXXIIIIWWWWWWWe###",
"LLLYYYY....$$$$$$$$$$$$$$$$$$$$$$$$$$$$$$$$$$$$$$....LLLLLLL4...",
"LLLYYYY....$$$$$$$$$$$$$$$$$$$$$$$$$$$$$$$$$$$$$$....LLLLLLL4...",
"LLLYYYY....$$$$$$$$$$$$$$$$$$$$$$$$$$$$$$$$$$$$$$....LLLLLLL4...",
"LLLYYYY....$$$$$$$$$$$$$$$$$$$$$$$$$$$$$$$$$$$$$$....LLLLLLL4...",
"0000000....$$$$$$$$$$$$$$$$$$$$$$$$$$$$$$$$$$$$$$....0000000:...",
"0000000....$$$$$$$$$$$$$$$$$$$$$$$$$$$$$$$$$$$$$$....0000000:...",
"0000000....$$$$$$$$$$$$$$$$$$$$$$$$$$$$$$$$$$$$$$....0000000:...",
"0000000....$$$$$$$$$$$$$$$$$$$$$$$$$$$$$$$$$$$$$$....0000000:...",
"YYYLLLL....$$$$$$$$$$$$$$$$$$$$$$$$$$$$$$$$$$$$$$....YYYYLLL4...",
"YYYLLLL....$$$$$$$$$$$$$$$$$$$$$$$$$$$$$$$$$$$$$$....YYYYLLL4...",
"YYYLLLL....$$$$$$$$$$$$$$$$$$$$$$$$$$$$$$$$$$$$$$....YYYYLLL4...",
"YYYLLLL....$$$$$$$$$$$$$$$$$$$$$$$$$$$$$$$$$$$$$$....YYYYLLL4...",
"YYYLLLL....$$$%000<$$$0000$$$$0000$$$;000-$$$$$$$....YYYYLLLa$$$",
"YYYLLLL....$$$%000<$$$0000$$$$0000$$$;000-$$$$$$$....YYYYLLLa$$$",
"YYYLLLL....$$$%000<$$$0000$$$$0000$$$;000-$$$$$$$....YYYYLLLa$$$",
"YYYLLLL....$$$%000<$$$0000$$$$0000$$$;000-$$$$$$$....YYYYLLLa$$$",
"LLLYYYY....0008...1000....0000....0003...6000$$$$....LLLLYYYr$$$",
"LLLYYYY....0008...1000....0000....0003...6000$$$$....LLLLYYYr$$$",
"LLLYYYY....0008...1000....0000....0003...6000$$$$....LLLLYYYr$$$",
"LLLYYYY....0008...1000....0000....0003...6000$$$$....LLLLYYYr$$$",
"0000000.......o000*...0000....0000...+000O...0000....00000002$$$",
"0000000.......o000*...0000....0000...+000O...0000....00000002$$$",
"0000000.......o000*...0000....0000...+000O...0000....00000002$$$",
"0000000.......o000*...0000....0000...+000O...0000....00000002$$$",
"YYYLLLL....000qYYYp000YYYYYYYYYYYYYYYn000PYYY    0000YYYYLLLa$$$",
"YYYLLLL....000qYYYp000YYYYYYYYYYYYYYYn000PYYY    0000YYYYLLLa$$$",
"YYYLLLL....000qYYYp000YYYYYYYYYYYYYYYn000PYYY    0000YYYYLLLa$$$",
"YYYLLLL....000qYYYp000YYYYYYYYYYYYYYYn000PYYY    0000YYYYLLLa$$$",
"YYYLLLL.......o000xYYYLLLLLLLLLLLLLLLGYYYy000    ....YYYYLLLa$$$",
"YYYLLLL.......o000xYYYLLLLLLLLLLLLLLLGYYYy000    ....YYYYLLLa$$$",
"YYYLLLL.......o000xYYYLLLLLLLLLLLLLLLGYYYy000    ....YYYYLLLa$$$",
"YYYLLLL.......o000xYYYLLLLLLLLLLLLLLLGYYYy000    ....YYYYLLLa$$$",
"LLLYYYY....000qYYYDLLLLLLLLLLLLLLLLLLLLLLRYYY0000....LLLLYYYr$$$",
"LLLYYYY....000qYYYDLLLLLLLLLLLLLLLLLLLLLLRYYY0000....LLLLYYYr$$$",
"LLLYYYY....000qYYYDLLLLLLLLLLLLLLLLLLLLLLRYYY0000....LLLLYYYr$$$",
"LLLYYYY....000qYYYDLLLLLLLLLLLLLLLLLLLLLLRYYY0000....LLLLYYYr$$$",
"0000000....YYYQ______________________________YYYY....00000002$$$",
"0000000....YYYQ______________________________YYYY....00000002$$$",
"0000000....YYYQ______________________________YYYY....00000002$$$",
"0000000....YYYQ______________________________YYYY....00000002$$$",
"...0000....00000000000000000000000000000000000000....$$$$0002$$$",
"...0000....00000000000000000000000000000000000000....$$$$0002$$$",
"...0000....00000000000000000000000000000000000000....$$$$0002$$$"
};
