/* XPM */
static char *a860659f8eb1485a949c7c17479c9f78Scfk1zczGpCehchR[] = {
/* columns rows colors chars-per-pixel */
"64 64 120 2 ",
"   c None",
".  c black",
"X  c #010000",
"o  c #000100",
"O  c #000001",
"+  c #010001",
"@  c #000101",
"#  c #010101",
"$  c #030001",
"%  c #000002",
"&  c #010002",
"*  c #000102",
"=  c #000003",
"-  c #020202",
";  c #000108",
":  c #040708",
">  c #03080A",
",  c #04080A",
"<  c #04090A",
"1  c #070B0B",
"2  c #0C0C0C",
"3  c #121617",
"4  c #121619",
"5  c #262A2C",
"6  c #272B2C",
"7  c #28292B",
"8  c #292A2C",
"9  c #282B2C",
"0  c #2A2B2C",
"q  c #2B2F2F",
"w  c #2A2E30",
"e  c #2B2E30",
"r  c #33383A",
"t  c #333B3E",
"y  c #343B3D",
"u  c #353A3E",
"i  c #343B3E",
"p  c #363B3F",
"a  c #343C3E",
"s  c #353D3E",
"d  c #343C3F",
"f  c #363C3E",
"g  c #3E3F3E",
"h  c #3B403F",
"j  c #333A41",
"k  c #353D40",
"l  c #343D41",
"z  c #363C40",
"x  c #373C41",
"c  c #393E42",
"v  c #474847",
"b  c #474748",
"n  c #484848",
"m  c #505050",
"M  c #555859",
"N  c #56595A",
"B  c #535B5C",
"V  c #545C5D",
"C  c #6B7172",
"Z  c #6A7273",
"A  c #6D7172",
"S  c #6C7173",
"D  c #6D7173",
"F  c #6C7272",
"G  c #6C7273",
"H  c #6D7373",
"J  c #6A7274",
"K  c #6A7275",
"L  c #6C7174",
"P  c #6D7174",
"I  c #6C7175",
"U  c #6E7174",
"Y  c #6C7274",
"T  c #6D7274",
"R  c #6D7374",
"E  c #6C7275",
"W  c #6D7275",
"Q  c #6D7375",
"!  c #6E7274",
"~  c #6E7375",
"^  c #6D7276",
"/  c #6E7675",
"(  c #6F7476",
")  c #707477",
"_  c #707577",
"`  c #767A7A",
"'  c #D90202",
"]  c #EE6307",
"[  c #EEE707",
"{  c #7B8182",
"}  c #7A8282",
"|  c #7C8283",
" . c #7F8482",
".. c #818485",
"X. c #828586",
"o. c #8D9596",
"O. c #929292",
"+. c #909595",
"@. c #909597",
"#. c #959595",
"$. c #A0AAA7",
"%. c #A1A9A8",
"&. c #A1A9A9",
"*. c #A2A9A8",
"=. c #A2A9A9",
"-. c #A2AAA8",
";. c #A2ABA8",
":. c #A2AAA9",
">. c #A2ABA9",
",. c #A1A9AA",
"<. c #A1ABAA",
"1. c #A2AAAA",
"2. c #A3AAAA",
"3. c #A2ABAA",
"4. c #A2AAAB",
"5. c #A3AAAB",
"6. c #A4A8A9",
"7. c #A5A9A9",
"8. c #A5A9AA",
"9. c #A6ADAB",
/* pixels */
"                                                  . . . . . . . . . . . . . .                                                   ",
"                                              . . [ [ [ [ [ [ ] ] ' ' ' ' ' ' ; .                                               ",
"                                              - . [ [ [ [ [ [ ] ] ' ' ' ' ' ' - .                                               ",
"                                            . [ [ [ [ [ ] ] ] ' ' ' ' ' ' ' ' ] ] .                                             ",
"                                            . ] ] ] ] ] ] ] ' ' ' ' ' ' ' ] ] ] ] .                                             ",
"                                            . ] ] ] ] ] ] ] ' ' ' ' ' ' ' ] ] ] ] .                                             ",
"                                              . . . . . . . . . . . . . . . . . .                                               ",
"                                              . . . . . . . . . . . . . . . . . .                                               ",
"                                            . 2.2.5.2.2.U U Z U ~ F d d l d l l l .                                             ",
"                                            .  .........M M M M M M q q w w 0 w q .                                             ",
"                            . . . . . . . . . . . . . . . . . . . . . . . . . . . . . . . . . . . .                             ",
"                      . . . 2.2.2.2.2.2.2.2.2.2.2.3.2.2.2.3.2.2.2.2.2.2.2.2.2.2.2.2.2.8.2.2.2.2.2.2.. . .                       ",
"                  m v ` ` ` } } | { | } | | | | } } } | | } | V B B V M V B V M B B V V M B M B B B 5 0 5 b n                   ",
"                  2 . 8.2.$.P U P ) P P U P P P P P P P P _ U c u l p u u l p p u d u p u u u c u l u u t - .                   ",
"            . . . . . . . . . . . . . . . . . - . . . . . . . . . . . . . . - . . . . . . . . . . . . . . . . . . .             ",
"          . 8.8.8.8.8.8.8.8.8.8.8.8.8.8.8.8.8.8.8.8.8.5.8.8.8.8.8.8.8.8.8.8.7.7.8.8.8.8.8.8.8.8.8.8.8.8.8.8.8.8.8.8..           ",
"          . 3.2.8.5.5.2.2.2.2.,.2.,.2.,.3.3.2.,.2.2.$.2.2.2.3.5.<.2.5.5.5.2.5.5.5.2.2.2.2.2.2.2.2.2.2.5.8.8.2.2.2.2.-           ",
"      - . 8.2.$.. . . 5.2.2.,.2.,.2.3.,.2.,.2.3.2.U U Z U F . . . a j t l t l u l a j l l l a d l d t l c . . . a a J - .       ",
"      . . 3.. . [ [ [ . J Z 2.2.3.3.2.2.2.2.Z Z Z C U P . . [ [ [ . U U Z C C U Z a t a t a d d d d a j . [ [ [ . . U . .       ",
"      - . 5.. . [ ] ] . Z U 2.2.2.,.,.3.2.2.U Z U Z U P . . [ ] ] . U C U C U C U l l a t l d d d t l j . [ ] ] . . Z . .       ",
"  . . 2.2.Z . . ] ] ' . Z U Z U ,.2.2.2.~ Z U Z C C C P . . ] ] ' . P U C U C U Z U Z P d d d d d d d j . ] ] ' . . Z U P . .   ",
"  . . 2.2.P . . ' ' ' . U Z U Z ,.,.2.2.~ Z Z U C Z ) C . . ' ' ' . U U C C U C U Z U P d d d d d d d r - ' ' ' . . Z P P . .   ",
"  . . 2.2.U P Z . . . C Z C Z U Z 2.2.2.) Z U Z Z U Z U P ~ . . . Z Z Z C C Z U Z U Z U d d d t d d d d l . . . d d d U P . .   ",
"O.h h o.o.Z U _ 0 0 7 C C C U Z U o.+.+._ U Z U U Z U J J P 0 0 9 U Z U C Z U Z U Z U P d t d l d d d d u 4 3 4 d d j P J 0 0 #.",
"- 9.2.U P P ~ P P ~ ~ J P P P U U J P P J P P ~ ~ U Z U P ~ ~ J U ~ ~ P ~ P ~ U P P P U a a a a d d d l d d d l d d d P P P P . ",
". f a a l l d d d d d d l l d d a a d d j l d d d d d d a a a l a a l l l d a a l l d d a l l l d d d l d d d l d d d l d d d . ",
"  1 : > < < > 1 > > 1 > < < > 1 < < > > < < < < > > > > 1 > > > > < < < > > > > < < > 1 > > 1 < 1 > < < > > < < > 1 > < > 1 1   ",
"  . . . . . . . . . . . . . . . . . . . - . - . . - . . . - . - . . . . . - . . . . . . . . . . . . . . . . . . . . . . . . .   ",
"                                                                                                                                ",
"                                                                                                                                ",
"                                                                                                                                ",
"                                                                                                                                ",
"                                                                                                                                ",
"                                                                                                                                ",
"                                                                                                                                ",
"                                                                                                                                ",
"                                                                                                                                ",
"                                                                                                                                ",
"                                                                                                                                ",
"                                                                                                                                ",
"                                                                                                                                ",
"                                                                                                                                ",
"                                                                                                                                ",
"                                                                                                                                ",
"                                                                                                                                ",
"                                                                                                                                ",
"                                                                                                                                ",
"                                                                                                                                ",
"                                                                                                                                ",
"                                                                                                                                ",
"                                                                                                                                ",
"                                                                                                                                ",
"                                                                                                                                ",
"                                                                                                                                ",
"                                                                                                                                ",
"                                                                                                                                ",
"                                                                                                                                ",
"                                                                                                                                ",
"                                                                                                                                ",
"                                                                                                                                ",
"                                                                                                                                ",
"                                                                                                                                ",
"                                                                                                                                ",
"                                                                                                                                "
};
