/* XPM */
static char *_30914ba9d2646a5987b6f9a955cc077XcHBz5K7U3fEfMkB[] = {
/* columns rows colors chars-per-pixel */
"64 64 152 2 ",
"   c None",
".  c #000102",
"X  c #040609",
"o  c #05090E",
"O  c #060C12",
"+  c #0A0E16",
"@  c #110A1B",
"#  c #091017",
"$  c #04121C",
"%  c #0B131C",
"&  c #150B20",
"*  c #021620",
"=  c #0D1721",
"-  c #061926",
";  c #0F1A25",
":  c #061C2A",
">  c #0E1E2B",
",  c #101B26",
"<  c #161128",
"1  c #121E29",
"2  c #131023",
"3  c #171C30",
"4  c #1C1B38",
"5  c #25183F",
"6  c #221739",
"7  c #0E212F",
"8  c #14212C",
"9  c #062335",
"0  c #0D2333",
"q  c #072638",
"w  c #07293C",
"e  c #0C293B",
"r  c #0D2739",
"t  c #162631",
"y  c #182732",
"u  c #142936",
"i  c #192A35",
"p  c #1F203C",
"a  c #1C2F3A",
"s  c #172D3B",
"d  c #1D303B",
"f  c #2B1A47",
"g  c #331E53",
"h  c #072D42",
"j  c #0B2E43",
"k  c #073046",
"l  c #0B3046",
"z  c #07334B",
"x  c #0A344C",
"c  c #1A3241",
"v  c #13374B",
"b  c #11394F",
"n  c #073750",
"m  c #0A3751",
"M  c #093A55",
"N  c #083D59",
"B  c #073954",
"V  c #242042",
"C  c #263445",
"Z  c #283648",
"A  c #2D2750",
"S  c #3B235F",
"D  c #2D3452",
"F  c #313558",
"G  c #3D2362",
"H  c #373677",
"J  c #412569",
"K  c #443A73",
"L  c #08405E",
"P  c #0F4165",
"I  c #19426F",
"U  c #2B5575",
"Y  c #315878",
"T  c #552F86",
"R  c #4D3182",
"E  c #4D3D95",
"W  c #593691",
"Q  c #623A9E",
"!  c #6737A1",
"~  c #6A39A6",
"^  c #6E3BAD",
"/  c #703BAF",
"(  c #713CB2",
")  c #2B4482",
"_  c #35458B",
"`  c #3D4694",
"'  c #44479B",
"]  c #60419C",
"[  c #406182",
"{  c #576E91",
"}  c #5C7294",
"|  c #6D7C9F",
" . c #4F48A5",
".. c #554AAA",
"X. c #5B49B2",
"o. c #6C44AD",
"O. c #644ABB",
"+. c #7346B6",
"@. c #6C4BC2",
"#. c #7B56C6",
"$. c #8D6CB6",
"%. c #8246CC",
"&. c #8A47D7",
"*. c #854CD7",
"=. c #9760DB",
"-. c #8C4FE4",
";. c #974FEC",
":. c #9550ED",
">. c #9F51F7",
",. c #A356F7",
"<. c #A559F7",
"1. c #AB5FF7",
"2. c #A764E9",
"3. c #AD64F7",
"4. c #B263F7",
"5. c #B46DF5",
"6. c #BB6CF7",
"7. c #B976F7",
"8. c #BE7DF7",
"9. c #C474F7",
"0. c #CA7CF7",
"q. c #7882A6",
"w. c #868BAF",
"e. c #878BB0",
"r. c #918BBA",
"t. c #AD98B6",
"y. c #9786C6",
"u. c #A19BC0",
"i. c #AA8BD5",
"p. c #ADA2C8",
"a. c #B1A4CA",
"s. c #BD86EA",
"d. c #C182F7",
"f. c #C98CF7",
"g. c #D383F7",
"h. c #D887F7",
"j. c #DC8BF7",
"k. c #CE94F7",
"l. c #D792F7",
"z. c #D49CF7",
"x. c #E49FF7",
"c. c #DCBEE6",
"v. c #D7A1F7",
"b. c #DDA9F7",
"n. c #E5A4F7",
"m. c #E9ABF7",
"M. c #ECB3F7",
"N. c #E9BAF7",
"B. c #E8C3EA",
"V. c #EDC2F5",
"C. c #F3C5F7",
"Z. c #F7CDF7",
/* pixels */
"                                                                                                                                ",
"                                                                                                                                ",
"                                                                                                                                ",
"                                                                                                                                ",
"                                                                                                                                ",
"                                                                                            M N             M M                 ",
"                                                                                            O z             $ o                 ",
"                                                                                            % 0 e e e       $ o e e             ",
"                                                                                            ; ; > ; >       $ o > ;             ",
"                                                                                            j u t ; , j j   w q % % j j         ",
"                                                                                              c a ; ; ; ,       # @ , ,         ",
"                                                                                              v c 1 1 , ;       # # , ,         ",
"                                                                                                  d d ; ,       # # ; ;         ",
"                                                                                                  d d ; ;       @ + ; ;         ",
"                                                                                                  d d ; ;   e 0 + # , ,         ",
"                                                                l j l j l j l j b b b b j l       y t ; ; b > ; 2 % j e         ",
"                                                                7 > > 7 7 > > > s c d c 7 7       1 , ; ; c 1 ; ; = N M         ",
"                                                    M m m x x m 1 > ; 8 1 8 8 8 y i d d 1 8 x x z ; , ; , d 8 8 ; ;             ",
"                                                    e ; , ; ; , a t ; d d d d d 8 ; d d d d ; O o ; ; ; , a d d ; ;             ",
"                                                    e ; ; ; ; ; a 8 ; d d d d d 8 ; d d d d ; O o ; ; ; , d d d ; ;             ",
"                                                  0 > ; i a ; ; d 8 ; 1 1 1 1 1 y a 1 1 d d i # o ; ; ; ; *.D d %.%.            ",
"                                                  , ; , d d ; ; d t ; ; ; ; ; ; y d ; ; d d d % o ; ; ; ; >.F d >.,.            ",
"                                              j j 8 t t t t ; ; t 1 ; t t t t t t t t t t t t # o ; ; ; ; ] Z d W W             ",
"                                          x m 1 8 i i i 0 0 0 0 0 0 0 a d d a a 8 ; d d , , % # + % = ; ; d a a 0 0             ",
"                                          0 0 i i 8 8 8               d d d d d 1 ; d d ; ; O % = O O ; ; d d d m B             ",
"                                          ; ; d d ; ; ;               d d d d d 8 ; d d ; ; o = , o o ; ; d d d                 ",
"                                      s d ; ; 8 1                         1 1 a 8 ; 1 1 O O ; O O = ; O O                       ",
"                                    ; t d ; ; ; ;                         , , d 8 ; ; ; o o ; O o , ; o o                       ",
"                                X.X.t t t ; ; ; ;                     v b y y t 8 y y t o o ; % % ; ; % %                       ",
"                                >.>.a t ; ; ; ; ;                     d a a a ; i d d d o o ; ; ; ; ; ; ;                       ",
"                        I ) [ [ 5.5.d i 8 ; ; 0 0                     i i a i 1 y i y t O + = ; ; ; ; ; ; z N           m       ",
"                        ..,.Z.Z.C.C.Z Z C ; ;                         , , , , a 7 ; O O ; ; O = ; ; ; ; ; . z         o ,       ",
"                      @.=.9.Z.Z.8.8.t.$.+.x x                         i y i y t % # h h x l h > ; ; ; % + . $ * : : . X ;       ",
"                      :.5.h.Z.Z.<.<.B.s.;.N                           a a a a ; + O           0 ; ; ; O O . . . O + . . >       ",
"                  O.O.9.l.M.d.d.z.z.Z.y.'                         ' O.o.o.o.o.u ; % H H       x l # + . . X X X . . . . l       ",
"                  >.,.j.m.Z.>.>.Z.Z.Z.q.L                         @.,.>.>.>.,.a 8 ; T T           o o . . o o o . . . .         ",
"              _ _ 4.4.x.n.b.7.7.a.a.a.{                           E ( ( ( ( ( K A V G G x x       - - $ $ o o o . . $ $         ",
"              >.>.j.j.Z.k.>.Z.Z.                                  : o o o o o >.~ T o o ; ;               o o o . .             ",
"              >.>.j.j.Z.k.>.Z.Z.                                  : o o o X o >.~ T o o ; ;               o o o . .             ",
"          ` *.g.0.C.C.3.f.N.Y Y                             c c $ = = = = = = 4 < 2 o o O + 7 7 0 $ %     n n n z z             ",
"         .#.6.m.m.k.k.f.i.e.                            b b d d # = ; ; ; % + + O o % + % # ; ; ; o o q q                       ",
"        -.2.g.C.C.3.3.N.r.U                             c c d d ; ; ; , ; O O ; O o ; ; = ; ; ; ; o o $ $                       ",
"    ` ` 4.0.n.v.z.8.s.p.}                               d d 8 8 % ; ; ; , o o ; O o ; ; ; ; ; ; ; . X o o j j w                 ",
"    ,.>.j.n.Z.>.>.Z.Z.                                  d d o o o % ; ; ; o o ; + o ; ; ; ; ; ; , . . o o o o o                 ",
"P P ,.,.j.n.Z.,.<.V.B.                                  a a o o o % ; ; ; o o , + O , ; ; ; ; ; ; . . o o o o o                 ",
"-.-.g.h.Z.z.3.N.V.                                      O + o o ; ; ; O o o o ; l B N N ; ; ; o . . . . . . X o > 7             ",
">.>.j.j.Z.z.>.Z.Z.                                      o o o o ; ; ; o o o o ; m       ; ; ; X . . . . . . o o ; ;             ",
"9.9.m.M.Z.N.z.| |                                   h : o o % % y y y w w w w j N       l l l O . . . . . . f g Q Q             ",
"0.0.Z.Z.Z.c.a.                                    x : # o o 1 8 d a i                       P : $ . . . . . g G &.&.            ",
"1.1.Z.Z.Z.p.[                                     0 ; = o o i i d 8 8                         z k X X o X . @ @ ! !             ",
"1.3.N.C.c.e.                                  B M p 4 3 o o a a a t >                             o O o o . . . R R             ",
"C.C.,.,.                                      + O ;./ R o O , , ; l                               o o o o . X o                 ",
"Z.Z.>.>.                                        o ,.( T O o ; ; ; l                               o O o o . o o                 ",
"| } `                                         o o / J 4 o o x l x N                               h j . . . q h                 ",
"                                              o o T f o o O                                           . . . x                   ",
"                                          h j o o S 4 - - -                                           . . * B                   ",
"                                      N N O O o o + h                                                 o o                       ",
"                                      x e % % o o h M                                                 . .                       ",
"                                      j , ; ; o o                                                     . .                       ",
"                                    0 u i x x k k                                                     o X - M                   ",
"                                    ; y d                                                             o O O m                   ",
"                                    8 8 8                                                             : : : M                   ",
"                                    d , o                                                                                       ",
"                                    d , o                                                                                       "
};
