/* XPM */
static char *_bfe8a076759481ab5237ba59edb5ca6wrXC2nkXGu7Whz45[] = {
/* columns rows colors chars-per-pixel */
"64 64 15 1 ",
"  c black",
". c #090C23",
"X c #18215D",
"o c #29266F",
"O c #481F4B",
"+ c #4C307F",
"@ c #503197",
"# c #6B3F9D",
"$ c #D46CBE",
"% c #E07CB7",
"& c #BF52C9",
"* c #C55AC6",
"= c #C95FC3",
"- c #EFAAA5",
"; c #ECA1A8",
/* pixels */
"                                                                ",
" &&XXXXXXXXXXXXXXXXXXXXXXXXXXXXXXXXXXXXXXXXXXXXXXXXXXXXXXXXXXX&O",
" &&XXXXXXXXXXXXXXXXXXXXXXXXXXXXXXXXXXXXXXXXXXXXXXXXXXXXXXXXXXX&O",
" @@%%%%%%%%%%%%%%%%%%%%%%%%%%%XX%%%%%%%%%%%%%%%%%%%%%%%%%%%%XXX.",
" @@%;;##*******************;##XX%%;;##******************;;##XXX.",
" @@%--@@&&&&&&&&&&&&&&&&&&&-@@XX%%--@@&&&&&&&&&&&&&&&&&&--@@XXX.",
" @@%@@@@&&&&&&&&&&&&&&&&&&&@@@XX%%@@@@&&&&&&&&&&&&&&&&&&@@@@XXX.",
" @@%@@@@&&&&&&&&&&&&&&&&&&&@@@XX%%@@@@&&&&&&&&&&&&&&&&&&@@@@XXX.",
" @@%&&&&&&&&&&&&&&&&&&&&&&&&&&XX%%&&&&&&&&&&&&&&&&&&&&&&&&&&XXX.",
" @@%&&&&&&&&&&&&&&&&&&&&&&&&&&XX%%&&&&&&&&&&&&&&&&&&&&&&&&&&XXX.",
" @@%&&&&&&&&&&&&&&&&&&&&&&&&&&XX%%&&&&&&&&&&&&&&&&&&&&&&&&&&XXX.",
" @@%&&&&&&&&&&&&&&&&&&&&&&&&&&XX%%&&&&&&&&&&&&&&&&&&&&&&&&&&XXX.",
" @@%&&&&&&&&&&&&&&&&&&&&&&&&&&XX%%--@@&&&&&&&&&&&&&&&&&&--@@XXX.",
" @@%&&&&&&&&&&&&&&&&&&&&&&&&&&XX%%--@@&&&&&&&&&&&&&&&&&&--@@XXX.",
" @@%&&&&&&&&&&&&&&&&&&&&&&&&&&XX%%@@@@&&&&&&&&&&&&&&&&&&@@@@XXX.",
" @@%&&&&&&&&&&&&&&&&&&&&&&&&&&XX%%@@@@&&&&&&&&&&&&&&&&&&@@@@XXX.",
" @@%&&&&&&&&&&&&&&&&&&&&&&&&&&XXXXXXXXXXXXXXXXXXXXXXXXXXXXXXXXX.",
" @@%&&&&&&&&&&&&&&&&&&&&&&&&&&XXXXXXXXXXXXXXXXXXXXXXXXXXXXXXXXX.",
" @@%&&&&&&&&&&&&&&&&&&&&&&&&&&XX%%--@@&&&&&&&&&&&&&&&&&&--@@XXX.",
" @@%&&&&&&&&&&&&&&&&&&&&&&&&&&XX%%@@@@&&&&&&&&&&&&&&&&&&@@@@XXX.",
" @@%&&&&&&&&&&&&&&&&&&&&&&&&&&XX%%@@@@&&&&&&&&&&&&&&&&&&@@@@XXX.",
" @@%&&&&&&&&&&&&&&&&&&&&&&&&&&XX%%&&&&&&&&&&&&&&&&&&&&&&&&&&XXX.",
" @@%&&&&&&&&&&&&&&&&&&&&&&&&&&XX%%&&&&&&&&&&&&&&&&&&&&&&&&&&XXX.",
" @@%&&&&&&&&&&&&&&&&&&&&&&&&&&XX%%&&&&&&&&&&&&&&&&&&&&&&&&&&XXX.",
" @@%&&&&&&&&&&&&&&&&&&&&&&&&&&XX%%&&&&&&&&&&&&&&&&&&&&&&&&&&XXX.",
" @@%&&&&&&&&&&&&&&&&&&&&&&&&&&XX%%&&&&&&&&&&&&&&&&&&&&&&&&&&XXX.",
" @@%&&&&&&&&&&&&&&&&&&&&&&&&&&XX%%&&&&&&&&&&&&&&&&&&&&&&&&&&XXX.",
" @@%--@@&&&&&&&&&&&&&&&&&&&-@@XX%%--@@&&&&&&&&&&&&&&&&&&--@@XXX.",
" @@%--@@&&&&&&&&&&&&&&&&&&&-@@XX%%--@@&&&&&&&&&&&&&&&&&&--@@XXX.",
" @@%@@@@&&&&&&&&&&&&&&&&&&&@@@XX%%@@@@&&&&&&&&&&&&&&&&&&@@@@XXX.",
" @@%@@@@&&&&&&&&&&&&&&&&&&&@@@XX%%@@@@&&&&&&&&&&&&&&&&&&@@@@XXX.",
" @@XXXXXXXXXXXXXXXXXXXXXXXXXXXXXXXXXXXXXXXXXXXXXXXXXXXXXXXXXXXX.",
" @@+++++++++++++++++++++++++++oo++++++++++++++++++++++++++++ooX.",
" @@&&&&&&&&&&&&&&&&&&&&&&&&&&&@@&&&&&&&&&&&&&&&&&&&&&&&&&&&&@@X.",
" @@&%%%%%%%%%%%%%%%%%%%%%%%%--@@&&--&&%%%%%%%%%%%%%%%%--&&--@@X.",
" @@&%%%%%%%%%%%%%%%%%%%%%%%%--@@&&--&&%%%%%%%%%%%%%%%%--&&--@@X.",
" @@&%%&&&&&&&&&&&&&&&&&%%%%%--@@&&&&&&%%%%%%%%%%%%%%%%&&&&--@@X.",
" @@&%%&&&&&&&&&&&&&&&&&%%%%%--@@&&&&&&%%%%%%%%%%%%%%%%&&&&--@@X.",
" @@&%%%%%%%%%%%%%%%%%%%&&%%%--@@&&%%%%%%%%%%%%%%%%%%%%%%%%--@@X.",
" @@&%%%%%%%%%%%%%%%%%%%&&%%%--@@&&%%%%%%%%%%%%%%%%%%%%%%%%--@@X.",
" @@&%%&&%%%%%%%%%%%%%%%%%&&%--@@&&%%%%%%%%%%%%%%%%%%%%%%%%--@@X.",
" @@&%%&&%%%%%%%%%%%%%%%%%&&%--@@&&%%%%%%%%%%%%%%%%%%%%%%%%--@@X.",
" @@&%%%%%%%%%%%%%%%%%%%%%&&%--@@&&%%%%%%%%%%%%%%%%%%%%%%%%--@@X.",
" @@&%%%%%%%%%%%%%%%%%%%%%&&%--@@&&%%%%%%%%%%%%%%%%%%%%%%%%--@@X.",
" @@&%%&&%%%%%%%%%%%%%%%%%&&%--@@&&%%%%%%%%%%%%%%%%%%%%%%%%--@@X.",
" @@&%%&&%%%%%%%%%%%%%%%%%&&%--@@&&%%%%%%%%%%%%%%%%%%%%%%%%--@@X.",
" @@&%%%%%%%%%%%%%%%%%%%%%&&%--@@&&%%%%%%%%%%%%%%%%%%%%%%%%--@@X.",
" @@&%%==%%%%%%%%%%%%%%%%%&&%--@@&&%%%%%%%%%%%%%%%%%%%%%%%%--@@X.",
" @@&%%&&%%%%%%%%%%%%%%%%%&&%--@@&&%%%%%%%%%%%%%%%%%%%%%%%%--@@X.",
" @@&%%%%%%%%%%%%%%%%%%%%%&&%--@@&&%%%%%%%%%%%%%%%%%%%%%%%%--@@X.",
" @@&%%%%%%%%%%%%%%%%%%%%%&&%--@@&&%%%%%%%%%%%%%%%%%%%%%%%%--@@X.",
" @@&%%&&%%%%%%%%%%%%%%%%%&&%--@@&&%%%%%%%%%%%%%%%%%%%%%%%%--@@X.",
" @@&%%&&%%%%%%%%%%%%%%%%%&&%--@@&&%%%%%%%%%%%%%%%%%%%%%%%%--@@X.",
" @@&%%%%%%%%%%%%%%%%%%%%%&&%--@@&&%%%%%%%%%%%%%%%%%%%%%%%%--@@X.",
" @@&%%%%%%%%%%%%%%%%%%%%%&&%--@@&&%%%%%%%%%%%%%%%%%%%%%%%%--@@X.",
" @@&%%&&%%&&%%&$%&&%%&&%%&&%--@@&&--&&%%%%%%%%%%%%%%%%--&&--@@X.",
" @@&%%&&%%&&%%&$%&&%%&&%%&&%--@@&&--&&%%%%%%%%%%%%%%%%--&&--@@X.",
" @@&%%%%%%%%%%%%%%%%%%%%%%%%--@@&&&&&&%%%%%%%%%%%%%%%%&&&&--@@X.",
" @@&%%%%%%%%%%%%%%%%%%%%%%%%--@@&&&&&&%%%%%%%%%%%%%%%%&&&&--@@X.",
" @@---------------------------@@----------------------------@@X.",
" @@---------------------------@@----------------------------@@X.",
" @@@@@@@@@@@@@@@@@@@@@@@@@@@@@@@@@@@@@@@@@@@@@@@@@@@@@@@@@@@@@X.",
" &&XXXXXXXXXXXXXXXXXXXXXXXXXXXXXXXXXXXXXXXXXXXXXXXXXXXXXXXXXXX&O",
" &&XXXXXXXXXXXXXXXXXXXXXXXXXXXXXXXXXXXXXXXXXXXXXXXXXXXXXXXXXXX&O"
};
